<svg width="232" height="159" viewBox="0 0 232 159" fill="none" xmlns="http://www.w3.org/2000/svg">
<g filter="url(#filter0_i_301_5)">
<path d="M16.4434 95.5391C17.3874 95.5391 17.8594 97.4837 17.8594 101.373V101.996C17.8594 105.999 17.3874 108 16.4434 108H1.7168C0.772786 108 0.300781 105.999 0.300781 101.996V101.373C0.300781 97.4837 0.772786 95.5391 1.7168 95.5391H16.4434ZM30.6035 95.5391C31.5475 95.5391 32.0195 97.4837 32.0195 101.373V101.996C32.0195 105.999 31.5475 108 30.6035 108H15.877C14.9329 108 14.4609 105.999 14.4609 101.996V101.373C14.4609 97.4837 14.9329 95.5391 15.877 95.5391H30.6035ZM44.7637 95.5391C45.7077 95.5391 46.1797 97.4837 46.1797 101.373V101.996C46.1797 105.999 45.7077 108 44.7637 108H30.0371C29.0931 108 28.6211 105.999 28.6211 101.996V101.373C28.6211 97.4837 29.0931 95.5391 30.0371 95.5391H44.7637ZM58.9238 95.5391C59.8678 95.5391 60.3398 97.4837 60.3398 101.373V101.996C60.3398 105.999 59.8678 108 58.9238 108H44.1973C43.2533 108 42.7812 105.999 42.7812 101.996V101.373C42.7812 97.4837 43.2533 95.5391 44.1973 95.5391H58.9238ZM73.084 95.5391C74.028 95.5391 74.5 97.4837 74.5 101.373V101.996C74.5 105.999 74.028 108 73.084 108H58.3574C57.4134 108 56.9414 105.999 56.9414 101.996V101.373C56.9414 97.4837 57.4134 95.5391 58.3574 95.5391H73.084ZM72.5176 95.5391H92.2285C100.913 95.5391 105.256 93.3867 105.256 89.082C105.256 88.2891 104.746 87.0618 103.727 85.4004C102.707 83.7012 101.197 81.7188 99.1953 79.4531L81.4102 58.7793C79.1068 56.0983 77.9551 53.2852 77.9551 50.3398C77.9928 47.8477 78.6536 45.752 79.9375 44.0527C81.2214 42.3535 83.0716 41.1074 85.4883 40.3145L121.229 28.6465V30.1758V40.3145V41.1641L90.8691 51.0762L107.182 69.9941C110.542 73.8835 112.997 77.3197 114.545 80.3027C116.131 83.2858 116.924 86.2122 116.924 89.082C116.924 95.1992 114.79 99.8815 110.523 103.129C106.257 106.376 100.12 108 92.1152 108H72.5176C71.5736 108 71.1016 105.999 71.1016 101.996V101.373C71.1016 97.4837 71.5736 95.5391 72.5176 95.5391ZM121.002 22.2461L85.375 34.1973V26.8906L121.002 14.9961V22.2461ZM193.332 108H191.916C188.48 108 185.61 107.415 183.307 106.244C181.041 105.036 178.851 103.167 176.736 100.637C172.545 105.546 167.296 108 160.99 108H133.859H132.727V106.867V96.6719V95.5391H133.859H160.027C163.728 95.5391 166.484 94.3496 168.297 91.9707C170.147 89.554 171.072 85.7591 171.072 80.5859V33.5176V32.3848H172.205H181.607H182.74V33.5176V80.6426C182.74 86.1556 183.363 90.026 184.609 92.2539C185.893 94.444 188.367 95.5391 192.029 95.5391H193.332C194.276 95.5391 194.748 97.4837 194.748 101.373V101.996C194.748 105.999 194.276 108 193.332 108ZM133.916 35.2168H143.318H144.451V36.3496V89.8184V90.9512H143.318H133.916H132.783V89.8184V36.3496V35.2168H133.916ZM192.822 95.5391H204.32C208.059 95.5391 210.702 94.8594 212.25 93.5C213.836 92.1029 214.629 89.5163 214.629 85.7402V69.0879V67.9551H215.762H225.617H226.75V69.0879V85.7969C226.75 93.0846 224.843 98.6165 221.029 102.393C217.253 106.131 211.665 108 204.264 108H192.822C191.878 108 191.406 105.999 191.406 101.996V101.373C191.406 97.4837 191.878 95.5391 192.822 95.5391ZM196.674 126.748L205.566 117.855L214.459 126.748L205.566 135.641L196.674 126.748Z" fill="#6246EA"/>
</g>
<path d="M12.2021 87.7954C10.2344 87.7954 8.62484 87.4422 7.37354 86.7358C6.12223 86.0396 5.19889 85.0658 4.60352 83.8145C4.01823 82.5732 3.72559 81.1353 3.72559 79.5005C3.72559 78.8446 3.78613 78.0474 3.90723 77.1089C4.03841 76.1704 4.27051 75.1663 4.60352 74.0967L6.22314 74.7324C5.95068 75.7012 5.75391 76.6094 5.63281 77.457C5.51172 78.2946 5.45117 79.006 5.45117 79.5913C5.45117 80.8628 5.68327 81.9779 6.14746 82.9365C6.62174 83.8952 7.3584 84.6419 8.35742 85.1768C9.35645 85.7116 10.638 85.979 12.2021 85.979C13.6452 85.979 14.9419 85.7923 16.0923 85.4189C17.2528 85.0557 18.166 84.5864 18.832 84.0112C19.5081 83.436 19.8462 82.8356 19.8462 82.21C19.8462 81.5238 19.5737 80.9839 19.0288 80.5903C18.4839 80.2069 17.7422 80.0151 16.8037 80.0151H14.8359C14.7048 80.0151 14.5988 79.9647 14.5181 79.8638C14.4373 79.7629 14.3717 79.6216 14.3213 79.4399L14.0337 78.4258C14.0135 78.3451 14.0286 78.2795 14.0791 78.229C14.1396 78.1785 14.2204 78.1533 14.3213 78.1533H22.1924V80.0151H20.6333C20.9663 80.328 21.1883 80.6711 21.2993 81.0444C21.4204 81.4178 21.481 81.7912 21.481 82.1646C21.481 82.881 21.269 83.5723 20.8452 84.2383C20.4214 84.9144 19.8058 85.5199 18.9985 86.0547C18.1912 86.5895 17.2174 87.0133 16.0771 87.3262C14.9368 87.639 13.6452 87.7954 12.2021 87.7954ZM21.6172 78.1533H30.7295V80H21.6172V78.1533ZM30.1846 78.1533H39.2969V80H30.1846V78.1533ZM38.752 78.1533H47.8643V80H38.752V78.1533ZM47.3193 78.1533H56.4316V80H47.3193V78.1533ZM66.2402 85.8579L67.7388 87.3716L66.2402 88.8701L64.7417 87.3716L66.2402 85.8579ZM68.4502 82.4521L69.9487 83.9507L68.4502 85.4492L66.9365 83.9507L68.4502 82.4521ZM64.0303 82.4521L65.5439 83.9507L64.0303 85.4492L62.5317 83.9507L64.0303 82.4521ZM55.8867 78.1533H58.4297C60.1654 78.1533 61.8102 77.901 63.3643 77.3965C64.9284 76.8818 66.4572 76.241 67.9507 75.4741C69.4442 74.7072 70.9478 73.9302 72.4614 73.1431C72.2697 73.0724 72.0477 72.9917 71.7954 72.9009C71.5532 72.8 71.2808 72.689 70.978 72.5679C70.6753 72.4468 70.3372 72.3156 69.9639 72.1743C69.1061 71.8514 68.3089 71.5335 67.5723 71.2207C66.8457 70.9079 66.1847 70.6455 65.5894 70.4336C64.994 70.2217 64.4692 70.1157 64.0151 70.1157C63.2987 70.1157 62.6377 70.3075 62.0322 70.6909C61.4368 71.0744 60.9373 71.5133 60.5337 72.0078L60.2612 72.356L58.7173 71.5991L58.8989 71.3267C59.5347 70.3983 60.2865 69.6667 61.1543 69.1318C62.0322 68.5869 62.9909 68.3145 64.0303 68.3145C64.777 68.3145 65.5238 68.4557 66.2705 68.7383C67.0173 69.0208 67.8094 69.3538 68.647 69.7373C69.424 70.1006 70.1405 70.4235 70.7964 70.7061C71.4523 70.9886 72.0578 71.2308 72.6128 71.4326C73.1678 71.6243 73.6825 71.7808 74.1567 71.9019C74.631 72.0229 75.0649 72.1087 75.4585 72.1592L75.4434 73.9604C74.9287 74.0715 74.404 74.238 73.8691 74.46C73.3444 74.6719 72.749 74.9544 72.083 75.3076C71.417 75.6507 70.6097 76.0695 69.6611 76.564C68.3796 77.2502 67.1283 77.8506 65.9072 78.3652C64.6862 78.8799 63.4601 79.2835 62.229 79.5762C61.008 79.8587 59.7264 80 58.3843 80H55.8867V78.1533Z" fill="#47AAF2"/>
<path d="M12.7227 131C12.1641 131 11.7285 130.844 11.416 130.531C11.1035 130.203 10.9473 129.764 10.9473 129.213V126.74H9.81641C8.80859 126.74 8.30469 127.381 8.30469 128.662C8.30469 129.662 8.68164 130.162 9.43555 130.162H10.4434V130.953C10.4434 131.641 10.2227 132.24 9.78125 132.752C9.32422 133.271 8.73242 133.572 8.00586 133.654H6.13672C4.97656 133.654 4.11133 133.309 3.54102 132.617C3.00586 132.004 2.73828 131.109 2.73828 129.934V127.76H3.91602V129.91C3.91602 130.859 4.11914 131.59 4.52539 132.102C4.93555 132.625 5.52344 132.887 6.28906 132.887H7.71875C8.18359 132.797 8.55078 132.557 8.82031 132.166C9.07812 131.83 9.21094 131.49 9.21875 131.146C8.58594 131.139 8.08203 130.938 7.70703 130.543C7.28125 130.137 7.06836 129.572 7.06836 128.85C7.06836 127.986 7.32812 127.283 7.84766 126.74C8.37891 126.197 9.06055 125.926 9.89258 125.926H12.1602L12.1367 128.938C12.1367 129.594 12.4238 129.922 12.998 129.922H13.9824V131H12.7227ZM14.0933 131V129.922H17.0933V131H14.0933ZM20.2452 124.004C20.2452 124.203 20.1768 124.371 20.0401 124.508C19.8955 124.652 19.7237 124.725 19.5245 124.725C19.3252 124.725 19.1495 124.656 18.9971 124.52C18.8526 124.383 18.7803 124.211 18.7803 124.004C18.7803 123.789 18.8526 123.617 18.9971 123.488C19.1416 123.344 19.3135 123.271 19.5127 123.271C19.7041 123.271 19.876 123.34 20.0284 123.477C20.1651 123.613 20.2334 123.789 20.2334 124.004H20.2452ZM20.9014 129.26C20.9014 129.787 20.7432 130.211 20.4268 130.531C20.1143 130.844 19.6807 131 19.126 131H17.2803V129.922H18.8272C19.4209 129.922 19.7178 129.605 19.7178 128.973V127.783L19.501 126.248L20.9014 125.938V129.26ZM27.0767 131C26.8697 132.383 26.0259 133.268 24.5455 133.654L24.2935 133.186C25.3248 132.783 25.8697 132.055 25.9283 131H24.7857C24.1451 131 23.6216 130.805 23.2154 130.414C22.7662 129.98 22.5416 129.412 22.5416 128.709C22.5416 127.838 22.7974 127.133 23.3091 126.594C23.8287 126.051 24.5084 125.779 25.3482 125.779H27.1002V129.922H28.4947V131H27.0767ZM25.8873 126.477H25.2779C24.7974 126.477 24.4244 126.656 24.1588 127.016C23.897 127.375 23.7662 127.867 23.7662 128.492C23.7662 129.445 24.1373 129.922 24.8795 129.922H25.8873V126.477ZM28.588 131V129.922H31.588V131H28.588ZM37.8102 127.221V128.891C37.8102 130.297 36.9137 131 35.1207 131H31.7633V129.922H33.5973C33.3512 129.496 33.2281 129.068 33.2281 128.639C33.2281 127.748 33.4918 127.035 34.0191 126.5C34.5465 125.965 35.2711 125.697 36.193 125.697C36.4781 125.697 36.7633 125.721 37.0484 125.768C37.3336 125.814 37.6207 125.883 37.9098 125.973L37.8102 127.221ZM36.5621 126.605C36.402 126.551 36.1949 126.523 35.941 126.523C34.9254 126.523 34.4176 127.152 34.4176 128.41C34.4176 129.418 34.7613 129.922 35.4488 129.922C36.3043 129.922 36.732 129.385 36.732 128.311C36.732 128.248 36.732 128.18 36.732 128.105C36.732 128.027 36.7281 127.943 36.7203 127.854C36.7125 127.693 36.6891 127.51 36.65 127.303L36.5621 126.605ZM43.9972 129.91L44.1788 131H39.4152L39.7257 129.922H42.7609L42.8019 129.67V128.41C42.8019 127.816 42.6847 127.352 42.4503 127.016C42.2433 126.711 41.964 126.559 41.6124 126.559C41.4757 126.559 41.3507 126.588 41.2374 126.646C41.2374 126.611 41.2355 126.572 41.2316 126.529C41.2277 126.486 41.2218 126.438 41.214 126.383C41.214 126.324 41.2101 126.262 41.2023 126.195C41.1945 126.125 41.1866 126.051 41.1788 125.973C41.1866 125.973 41.2003 125.973 41.2198 125.973C41.2394 125.973 41.2667 125.969 41.3019 125.961C41.3566 125.945 41.4405 125.934 41.5538 125.926C42.2804 125.926 42.8683 126.182 43.3175 126.693C43.7706 127.213 43.9972 127.852 43.9972 128.609V129.91ZM50.5006 131C50.2936 132.383 49.4498 133.268 47.9694 133.654L47.7174 133.186C48.7487 132.783 49.2936 132.055 49.3522 131H48.2096C47.569 131 47.0455 130.805 46.6393 130.414C46.1901 129.98 45.9655 129.412 45.9655 128.709C45.9655 127.838 46.2213 127.133 46.733 126.594C47.2526 126.051 47.9323 125.779 48.7721 125.779H50.5241V129.922H51.9186V131H50.5006ZM49.3112 126.477H48.7018C48.2213 126.477 47.8483 126.656 47.5827 127.016C47.3209 127.375 47.1901 127.867 47.1901 128.492C47.1901 129.445 47.5612 129.922 48.3034 129.922H49.3112V126.477ZM55.7795 124.004C55.7795 124.203 55.7072 124.371 55.5627 124.508C55.4181 124.652 55.2423 124.725 55.0353 124.725C54.8517 124.725 54.6838 124.656 54.5314 124.52C54.3791 124.383 54.3029 124.211 54.3029 124.004C54.3029 123.789 54.3752 123.617 54.5197 123.488C54.6642 123.344 54.8322 123.271 55.0236 123.271C55.2228 123.271 55.3986 123.34 55.5509 123.477C55.6955 123.621 55.7677 123.797 55.7677 124.004H55.7795ZM52.0236 131V129.922H57.2209C57.1466 129.754 57.0646 129.586 56.9748 129.418C56.8888 129.25 56.799 129.082 56.7052 128.914C56.5998 128.746 56.4904 128.578 56.3771 128.41C56.2677 128.242 56.1486 128.07 56.0197 127.895C55.3634 126.996 54.7834 126.547 54.2795 126.547C53.9123 126.547 53.7287 126.771 53.7287 127.221C53.7287 127.42 53.7892 127.688 53.9103 128.023L52.6447 128.17C52.6877 127.76 52.7638 127.406 52.8732 127.109C52.9943 126.801 53.1388 126.537 53.3068 126.318C53.4904 126.096 53.6955 125.932 53.922 125.826C54.1447 125.709 54.3888 125.65 54.6545 125.65C55.5802 125.65 56.5119 126.326 57.4494 127.678C58.3127 128.916 58.7912 130.023 58.8849 131H52.0236ZM67.966 127.725C67.966 127.924 67.8977 128.092 67.7609 128.229C67.6164 128.373 67.4406 128.445 67.2336 128.445C67.0344 128.445 66.8664 128.377 66.7297 128.24C66.5852 128.104 66.5129 127.928 66.5129 127.713C66.5129 127.514 66.5812 127.346 66.718 127.209C66.8625 127.064 67.0344 126.992 67.2336 126.992C67.4406 126.992 67.6125 127.061 67.7492 127.197C67.8937 127.342 67.966 127.518 67.966 127.725ZM70.7844 130.15C70.7844 131.205 70.4602 132.049 69.8117 132.682C69.1555 133.322 68.2687 133.643 67.1516 133.643C65.9992 133.643 65.134 133.289 64.5559 132.582C64.0285 131.934 63.7648 131.029 63.7648 129.869V127.689H64.9426V129.834C64.9426 130.068 64.9562 130.291 64.9836 130.502C65.0109 130.713 65.048 130.91 65.0949 131.094C65.2004 131.48 65.3566 131.805 65.5637 132.066C65.7707 132.332 66.0187 132.533 66.3078 132.67C66.6047 132.814 66.9406 132.887 67.3156 132.887C67.9406 132.887 68.4699 132.629 68.9035 132.113C69.3723 131.547 69.6066 130.82 69.6066 129.934C69.6066 128.566 69.6027 127.873 69.5949 127.854L69.3781 126.271L70.7844 125.938V130.15ZM74.6218 131C74.071 131 73.6394 130.844 73.3269 130.531C73.0066 130.211 72.8464 129.771 72.8464 129.213V125.135L72.6413 123.594L74.0476 123.271V128.938C74.0476 129.594 74.3347 129.922 74.9089 129.922H75.5593V131H74.6218ZM75.7405 131V129.922H78.7405V131H75.7405ZM82.4666 129.26C82.4666 129.787 82.3084 130.211 81.992 130.531C81.6795 130.844 81.2459 131 80.6912 131H78.8455V129.922H80.3923C80.9861 129.922 81.283 129.605 81.283 128.973V127.783L81.0662 126.248L82.4548 125.938V129.26H82.4666ZM81.822 132.934C81.822 133.117 81.7498 133.281 81.6052 133.426C81.4607 133.578 81.2888 133.654 81.0896 133.654C80.8982 133.654 80.7263 133.586 80.574 133.449C80.4295 133.32 80.3572 133.145 80.3572 132.922C80.3572 132.719 80.4295 132.551 80.574 132.418C80.7185 132.273 80.8865 132.201 81.0779 132.201C81.2771 132.201 81.4529 132.27 81.6052 132.406C81.742 132.539 81.8103 132.715 81.8103 132.934H81.822ZM86.3743 124.004C86.3743 124.203 86.3059 124.371 86.1692 124.508C86.0247 124.652 85.8489 124.725 85.6419 124.725C85.4427 124.725 85.2747 124.656 85.138 124.52C84.9934 124.383 84.9212 124.211 84.9212 124.004C84.9212 123.797 84.9895 123.625 85.1263 123.488C85.2708 123.344 85.4427 123.271 85.6419 123.271C85.8255 123.271 85.9934 123.34 86.1458 123.477C86.2981 123.621 86.3743 123.797 86.3743 124.004ZM86.468 130.496C86.468 132.121 85.6087 133.174 83.8899 133.654L83.638 133.186C84.7434 132.842 85.2962 132.068 85.2962 130.865L85.2845 127.854L85.0442 126.248L86.468 125.926V130.496ZM96.2874 131C95.6546 131 95.1448 130.797 94.7581 130.391C94.3441 130.613 93.8284 130.729 93.2113 130.736C92.5628 130.752 92.055 130.543 91.6878 130.109C91.3206 129.68 91.137 129.105 91.137 128.387C91.137 127.609 91.3929 126.984 91.9046 126.512C92.432 126.031 93.1116 125.791 93.9437 125.791H94.3421L94.2542 125.252C94.7855 125.115 95.2659 125.008 95.6956 124.93V128.949C95.6956 129.598 95.9886 129.922 96.5745 129.922H97.3421V131H96.2757H96.2874ZM94.5355 126.57C94.4691 126.578 94.4105 126.582 94.3597 126.582C94.3089 126.582 94.2542 126.586 94.1956 126.594H93.8851C93.4515 126.609 93.096 126.762 92.8187 127.051C92.514 127.355 92.3655 127.729 92.3734 128.17C92.3734 129.217 92.7405 129.74 93.4749 129.74C93.8382 129.74 94.1878 129.691 94.5238 129.594V126.57H94.5355ZM97.4881 131V129.922H100.488V131H97.4881ZM104.214 129.26C104.214 129.787 104.056 130.211 103.74 130.531C103.427 130.844 102.994 131 102.439 131H100.593V129.922H102.14C102.734 129.922 103.031 129.605 103.031 128.973V127.783L102.814 126.248L104.202 125.938V129.26H104.214ZM103.57 132.934C103.57 133.117 103.497 133.281 103.353 133.426C103.208 133.578 103.036 133.654 102.837 133.654C102.646 133.654 102.474 133.586 102.322 133.449C102.177 133.32 102.105 133.145 102.105 132.922C102.105 132.719 102.177 132.551 102.322 132.418C102.466 132.273 102.634 132.201 102.826 132.201C103.025 132.201 103.201 132.27 103.353 132.406C103.49 132.539 103.558 132.715 103.558 132.934H103.57ZM114.368 131C113.735 131 113.225 130.797 112.838 130.391C112.424 130.613 111.909 130.729 111.291 130.736C110.643 130.752 110.135 130.543 109.768 130.109C109.401 129.68 109.217 129.105 109.217 128.387C109.217 127.609 109.473 126.984 109.985 126.512C110.512 126.031 111.192 125.791 112.024 125.791H112.422L112.334 125.252C112.866 125.115 113.346 125.008 113.776 124.93V128.949C113.776 129.598 114.069 129.922 114.655 129.922H115.422V131H114.356H114.368ZM112.616 126.57C112.549 126.578 112.491 126.582 112.44 126.582C112.389 126.582 112.334 126.586 112.276 126.594H111.965C111.532 126.609 111.176 126.762 110.899 127.051C110.594 127.355 110.446 127.729 110.454 128.17C110.454 129.217 110.821 129.74 111.555 129.74C111.918 129.74 112.268 129.691 112.604 129.594V126.57H112.616ZM115.568 131V129.922H118.568V131H115.568ZM122.294 129.26C122.294 129.787 122.136 130.211 121.82 130.531C121.507 130.844 121.074 131 120.519 131H118.673V129.922H120.22C120.814 129.922 121.111 129.605 121.111 128.973V127.783L120.894 126.248L122.283 125.938V129.26H122.294ZM121.65 132.934C121.65 133.117 121.578 133.281 121.433 133.426C121.289 133.578 121.117 133.654 120.917 133.654C120.726 133.654 120.554 133.586 120.402 133.449C120.257 133.32 120.185 133.145 120.185 132.922C120.185 132.719 120.257 132.551 120.402 132.418C120.546 132.273 120.714 132.201 120.906 132.201C121.105 132.201 121.281 132.27 121.433 132.406C121.57 132.539 121.638 132.715 121.638 132.934H121.65ZM126.606 131C126.364 131 126.163 130.973 126.003 130.918C125.858 132.309 125.003 133.221 123.436 133.654L123.173 133.186C124.286 132.842 124.843 132.068 124.843 130.865L124.831 127.854L124.591 126.248L126.015 125.926V128.926C126.015 129.59 126.308 129.922 126.894 129.922H127.567V131H126.606ZM127.684 131V129.922H132.881C132.807 129.754 132.725 129.586 132.635 129.418C132.549 129.25 132.459 129.082 132.366 128.914C132.26 128.746 132.151 128.578 132.038 128.41C131.928 128.242 131.809 128.07 131.68 127.895C131.024 126.996 130.444 126.547 129.94 126.547C129.573 126.547 129.389 126.771 129.389 127.221C129.389 127.42 129.45 127.688 129.571 128.023L128.305 128.17C128.348 127.76 128.424 127.406 128.534 127.109C128.655 126.801 128.799 126.537 128.967 126.318C129.151 126.096 129.356 125.932 129.582 125.826C129.805 125.709 130.049 125.65 130.315 125.65C131.147 125.65 131.969 126.178 132.782 127.232C132.942 127.439 133.094 127.652 133.239 127.871C133.383 128.086 133.516 128.305 133.637 128.527C133.891 128.984 134.102 129.449 134.27 129.922H135.184V131H127.684ZM132.079 132.934C132.079 133.109 132.01 133.273 131.874 133.426C131.729 133.578 131.557 133.654 131.358 133.654C131.155 133.654 130.979 133.586 130.831 133.449C130.678 133.312 130.602 133.137 130.602 132.922C130.602 132.719 130.674 132.551 130.819 132.418C130.959 132.273 131.135 132.201 131.346 132.201C131.53 132.201 131.698 132.27 131.85 132.406C132.002 132.559 132.079 132.734 132.079 132.934ZM135.324 131V129.922H138.324V131H135.324ZM142.232 124.004C142.232 124.203 142.164 124.371 142.027 124.508C141.882 124.652 141.71 124.725 141.511 124.725C141.312 124.725 141.136 124.656 140.984 124.52C140.839 124.383 140.767 124.207 140.767 123.992C140.767 123.785 140.839 123.617 140.984 123.488C141.128 123.344 141.304 123.271 141.511 123.271C141.695 123.271 141.863 123.34 142.015 123.477C142.16 123.621 142.232 123.797 142.232 124.004ZM140.31 124.004C140.31 124.203 140.242 124.371 140.105 124.508C139.972 124.652 139.8 124.725 139.589 124.725C139.39 124.725 139.214 124.656 139.062 124.52C138.917 124.383 138.845 124.207 138.845 123.992C138.845 123.785 138.917 123.617 139.062 123.488C139.207 123.344 139.382 123.271 139.589 123.271C139.777 123.271 139.945 123.34 140.093 123.477C140.238 123.621 140.31 123.797 140.31 124.004ZM142.097 129.26C142.097 129.795 141.943 130.219 141.634 130.531C141.306 130.844 140.869 131 140.322 131H138.488V129.922H140.035C140.621 129.922 140.914 129.605 140.914 128.973V127.783L140.709 126.248L142.097 125.938V129.26ZM149.239 131C148.551 131 148.003 130.764 147.592 130.291C147.186 129.811 146.983 129.184 146.983 128.41C146.983 127.809 147.139 127.24 147.452 126.705H148.518C148.143 127.248 147.956 127.736 147.956 128.17C147.956 129.338 148.432 129.922 149.385 129.922H156.253V128.17C156.253 127.248 155.575 126.787 154.219 126.787H149.983C150.354 126.428 150.698 126.09 151.014 125.773C151.335 125.457 151.631 125.15 151.905 124.854C152.456 124.264 152.924 123.736 153.311 123.271H155.028L153.323 124.678L152.239 125.756H154.471C155.424 125.756 156.153 125.947 156.657 126.33C157.169 126.725 157.424 127.27 157.424 127.965V131H149.239ZM160.471 124.842V131H159.281V124.854L159.088 123.365L160.588 123.248L160.471 124.842ZM165.064 131C164.822 131 164.621 130.973 164.461 130.918C164.316 132.309 163.461 133.221 161.894 133.654L161.63 133.186C162.744 132.842 163.3 132.068 163.3 130.865L163.289 127.854L163.048 126.248L164.472 125.926V128.926C164.472 129.59 164.765 129.922 165.351 129.922H166.025V131H165.064ZM166.142 131V129.922H169.142V131H166.142ZM172.727 124.004C172.727 124.203 172.659 124.371 172.522 124.508C172.378 124.652 172.202 124.725 171.995 124.725C171.796 124.725 171.628 124.656 171.491 124.52C171.346 124.383 171.274 124.207 171.274 123.992C171.274 123.793 171.342 123.625 171.479 123.488C171.624 123.344 171.796 123.271 171.995 123.271C172.202 123.271 172.374 123.34 172.51 123.477C172.655 123.621 172.727 123.797 172.727 124.004ZM170.805 124.004C170.805 124.203 170.737 124.371 170.6 124.508C170.456 124.652 170.28 124.725 170.073 124.725C169.874 124.725 169.706 124.656 169.569 124.52C169.424 124.383 169.352 124.207 169.352 123.992C169.352 123.793 169.421 123.625 169.557 123.488C169.702 123.344 169.874 123.271 170.073 123.271C170.28 123.271 170.452 123.34 170.589 123.477C170.733 123.621 170.805 123.797 170.805 124.004ZM173.038 131C172.549 131 172.157 130.881 171.86 130.643C171.532 130.881 171.149 131 170.712 131H169.282V129.922H170.383C170.977 129.922 171.274 129.605 171.274 128.973V127.807L171.022 126.248L172.452 125.926V128.973C172.452 129.605 172.739 129.922 173.313 129.922H173.94V131H173.038ZM183.455 129.26C183.455 129.787 183.301 130.207 182.992 130.52C182.672 130.84 182.246 131 181.715 131C181.078 131 180.539 130.771 180.098 130.314C179.77 130.771 179.285 131 178.645 131C178.02 131 177.477 130.76 177.016 130.279C176.965 130.346 176.928 130.391 176.904 130.414C176.889 130.438 176.869 130.461 176.846 130.484C176.822 130.508 176.803 130.527 176.787 130.543C176.459 130.848 176.031 131 175.504 131H174.11V129.922H175.211C175.781 129.922 176.07 129.605 176.078 128.973L176.102 126.658L177.279 126.395V129.383V129.512C177.58 129.793 177.936 129.934 178.346 129.934C178.912 129.934 179.195 129.617 179.195 128.984V126.658L180.373 126.395V129.488C180.67 129.785 181.014 129.934 181.404 129.934C181.975 129.934 182.26 129.617 182.26 128.984V127.807L182.043 126.248L183.455 125.926V129.26ZM179.424 124.004C179.424 124.203 179.356 124.371 179.219 124.508C179.078 124.652 178.902 124.725 178.692 124.725C178.5 124.725 178.328 124.656 178.176 124.52C178.024 124.391 177.947 124.215 177.947 123.992C177.947 123.785 178.02 123.617 178.164 123.488C178.317 123.344 178.492 123.271 178.692 123.271C178.875 123.271 179.043 123.34 179.195 123.477C179.348 123.621 179.424 123.797 179.424 124.004ZM181.346 124.004C181.346 124.203 181.274 124.371 181.129 124.508C180.985 124.652 180.809 124.725 180.602 124.725C180.418 124.725 180.25 124.656 180.098 124.52C179.945 124.391 179.869 124.215 179.869 123.992C179.869 123.785 179.942 123.617 180.086 123.488C180.238 123.344 180.41 123.271 180.602 123.271C180.793 123.271 180.965 123.34 181.117 123.477C181.27 123.621 181.346 123.797 181.346 124.004ZM180.373 122.146C180.373 122.33 180.305 122.498 180.168 122.65C180.024 122.791 179.848 122.861 179.641 122.861C179.442 122.861 179.274 122.795 179.137 122.662C178.992 122.518 178.92 122.346 178.92 122.146C178.92 121.951 178.988 121.779 179.125 121.631C179.27 121.479 179.442 121.402 179.641 121.402C179.848 121.402 180.02 121.473 180.156 121.613C180.301 121.758 180.373 121.936 180.373 122.146ZM186.554 124.842V131H185.365V124.854L185.172 123.365L186.672 123.248L186.554 124.842Z" fill="#707070" fill-opacity="0.73"/>
<defs>
<filter id="filter0_i_301_5" x="0.300781" y="14.9961" width="226.449" height="124.645" filterUnits="userSpaceOnUse" color-interpolation-filters="sRGB">
<feFlood flood-opacity="0" result="BackgroundImageFix"/>
<feBlend mode="normal" in="SourceGraphic" in2="BackgroundImageFix" result="shape"/>
<feColorMatrix in="SourceAlpha" type="matrix" values="0 0 0 0 0 0 0 0 0 0 0 0 0 0 0 0 0 0 127 0" result="hardAlpha"/>
<feOffset dy="4"/>
<feGaussianBlur stdDeviation="2"/>
<feComposite in2="hardAlpha" operator="arithmetic" k2="-1" k3="1"/>
<feColorMatrix type="matrix" values="0 0 0 0 0.00581055 0 0 0 0 0.00581055 0 0 0 0 0.00581055 0 0 0 0.25 0"/>
<feBlend mode="normal" in2="shape" result="effect1_innerShadow_301_5"/>
</filter>
</defs>
</svg>
